<svg width="23" height="23" viewBox="0 0 23 23" fill="none" xmlns="http://www.w3.org/2000/svg">
<path fill-rule="evenodd" clip-rule="evenodd" d="M2.79537 3.75368C1.91669 4.63236 1.91669 6.04657 1.91669 8.875V14.125C1.91669 16.9534 1.91669 18.3676 2.79537 19.2463C3.67405 20.125 5.08826 20.125 7.91668 20.125H17.25C18.0246 20.125 18.4119 20.125 18.7327 20.0539C19.8709 19.8015 20.7599 18.9126 21.0122 17.7743C21.0834 17.4536 21.0834 17.0663 21.0834 16.2917H15.3334C13.7455 16.2917 12.4584 15.0045 12.4584 13.4167C12.4584 11.8288 13.7455 10.5417 15.3334 10.5417H21.0834V8.875C21.0834 6.04657 21.0834 4.63236 20.2047 3.75368C19.326 2.875 17.9118 2.875 15.0834 2.875H7.91669C5.08826 2.875 3.67405 2.875 2.79537 3.75368ZM6.70835 6.66667C6.15607 6.66667 5.70835 7.11438 5.70835 7.66667C5.70835 8.21895 6.15607 8.66667 6.70835 8.66667H9.58335C10.1356 8.66667 10.5834 8.21895 10.5834 7.66667C10.5834 7.11438 10.1356 6.66667 9.58335 6.66667H6.70835Z" fill="#222222"/>
<path d="M16.2916 13.4167H15.3333" stroke="#222222" stroke-width="2" stroke-linecap="round"/>
</svg>
