<svg width="22" height="22" viewBox="0 0 22 22" fill="none" xmlns="http://www.w3.org/2000/svg">
<path fill-rule="evenodd" clip-rule="evenodd" d="M11.3995 16.3022C12.8021 15.5689 17.4166 12.81 17.4166 8.24998C17.4166 4.70615 14.5438 1.83331 11 1.83331C7.45615 1.83331 4.58331 4.70615 4.58331 8.24998C4.58331 12.81 9.19784 15.5689 10.6004 16.3022C10.8529 16.4342 11.1471 16.4342 11.3995 16.3022ZM11 11C12.5188 11 13.75 9.76876 13.75 8.24998C13.75 6.7312 12.5188 5.49998 11 5.49998C9.4812 5.49998 8.24998 6.7312 8.24998 8.24998C8.24998 9.76876 9.4812 11 11 11Z" fill="#222222"/>
<path d="M16.557 15.125C17.1202 15.5431 17.4166 16.0173 17.4166 16.5C17.4166 16.9827 17.1202 17.4569 16.557 17.875C15.9938 18.2931 15.1838 18.6402 14.2083 18.8816C13.2329 19.1229 12.1263 19.25 11 19.25C9.87362 19.25 8.7671 19.1229 7.79165 18.8816C6.81619 18.6402 6.00616 18.2931 5.44298 17.875C4.8798 17.4569 4.58331 16.9827 4.58331 16.5C4.58331 16.0173 4.8798 15.5431 5.44298 15.125" stroke="#222222" stroke-width="2" stroke-linecap="round"/>
</svg>
